<svg width="202" height="30" viewBox="0 0 202 30" fill="none" xmlns="http://www.w3.org/2000/svg">
<mask id="mask0_1176_3780" style="mask-type:luminance" maskUnits="userSpaceOnUse" x="0" y="0" width="202" height="30">
<path d="M201.9 0H0V30H201.9V0Z" fill="white"/>
</mask>
<g mask="url(#mask0_1176_3780)">
<path d="M39 6.38965H43.2963V13.0503H50.6523V6.38965H54.9486V23.6099H50.6523V16.6243H43.2963V23.6099H39V6.38965Z" fill="black"/>
<path d="M66.6772 24C65.5057 24 64.3882 23.8267 63.325 23.4801C62.2834 23.1119 61.372 22.5704 60.5908 21.8556C59.8096 21.1191 59.1913 20.1985 58.7356 19.0939C58.2799 17.9675 58.0522 16.657 58.0522 15.1624V14.5126C58.0522 13.083 58.2691 11.8375 58.7032 10.7762C59.137 9.71481 59.7337 8.83755 60.4933 8.1444C61.2526 7.42959 62.1313 6.89892 63.1297 6.55236C64.1278 6.18411 65.2018 6 66.3517 6C69.0643 6 71.1256 6.71481 72.5359 8.1444C73.9465 9.57402 74.6515 11.6426 74.6515 14.3502V16.1697H62.446C62.4679 16.9278 62.5981 17.5885 62.8366 18.1516C63.0754 18.6931 63.3901 19.1372 63.7804 19.4837C64.171 19.8303 64.6159 20.0902 65.1151 20.2635C65.6359 20.4151 66.1564 20.491 66.6772 20.491C67.7839 20.491 68.6194 20.3285 69.1834 20.0036C69.7477 19.6787 70.1491 19.2022 70.3879 18.574H74.326C73.9789 20.3718 73.1218 21.7256 71.7547 22.6354C70.3879 23.5451 68.6953 24 66.6772 24ZM66.5146 9.50904C66.0154 9.50904 65.5165 9.57402 65.0173 9.70398C64.54 9.83394 64.117 10.0397 63.748 10.3213C63.379 10.6029 63.0754 10.9819 62.8366 11.4585C62.5981 11.935 62.4679 12.509 62.446 13.1805H70.4854C70.4638 12.4657 70.3444 11.87 70.1275 11.3935C69.9322 10.917 69.6499 10.5379 69.2812 10.2563C68.9341 9.97473 68.5216 9.77979 68.0443 9.67149C67.567 9.56319 67.057 9.50904 66.5146 9.50904Z" fill="black"/>
<path d="M81.6268 9.96367H76.126V6.38965H91.4236V9.96367H85.9231V23.6099H81.6268V9.96367Z" fill="black"/>
<path d="M101.513 24C100.342 24 99.2242 23.8267 98.161 23.4801C97.1194 23.1119 96.2083 22.5596 95.4271 21.8231C94.6459 21.0866 94.0276 20.1661 93.5719 19.0614C93.1162 17.9567 92.8882 16.657 92.8882 15.1624V14.5126C92.8882 13.1047 93.1162 11.87 93.5719 10.8087C94.0276 9.7473 94.6459 8.85921 95.4271 8.1444C96.2083 7.42959 97.1194 6.89892 98.161 6.55236C99.2242 6.18411 100.342 6 101.513 6C102.685 6 103.792 6.18411 104.833 6.55236C105.875 6.89892 106.786 7.42959 107.567 8.1444C108.37 8.85921 108.999 9.7473 109.455 10.8087C109.911 11.87 110.139 13.1047 110.139 14.5126V15.1624C110.139 16.6354 109.911 17.9242 109.455 19.0289C108.999 20.1336 108.37 21.0541 107.567 21.7906C106.786 22.5271 105.875 23.0794 104.833 23.4476C103.792 23.8159 102.685 24 101.513 24ZM101.513 20.361C102.728 20.361 103.738 19.9278 104.54 19.0614C105.365 18.1949 105.777 16.8953 105.777 15.1624V14.5126C105.777 12.9314 105.365 11.7292 104.54 10.9061C103.738 10.0614 102.728 9.639 101.513 9.639C100.277 9.639 99.2569 10.0614 98.4541 10.9061C97.651 11.7292 97.2496 12.9314 97.2496 14.5126V15.1624C97.2496 16.917 97.651 18.2274 98.4541 19.0939C99.2569 19.9386 100.277 20.361 101.513 20.361Z" fill="black"/>
<path d="M113.063 23.9998C112.89 23.9998 112.673 23.9889 112.412 23.9673C112.152 23.9673 111.935 23.9456 111.761 23.9023V20.0359C111.87 20.0575 112.033 20.0684 112.25 20.0684C112.662 20.0684 113.02 19.9492 113.324 19.711C113.628 19.451 113.877 19.0178 114.072 18.4113C114.289 17.8048 114.441 17.0034 114.528 16.007C114.636 14.9889 114.691 13.7326 114.691 12.238V6.38965H128.361V23.6099H124.065V9.96367H118.662V12.8879C118.662 15.1189 118.542 16.9601 118.304 18.4113C118.086 19.8409 117.739 20.9673 117.262 21.7904C116.806 22.6135 116.22 23.1875 115.504 23.5124C114.81 23.8373 113.996 23.9998 113.063 23.9998Z" fill="black"/>
<path d="M140.069 24C138.897 24 137.78 23.8267 136.717 23.4801C135.675 23.1119 134.764 22.5596 133.983 21.8231C133.202 21.0866 132.583 20.1661 132.127 19.0614C131.672 17.9567 131.444 16.657 131.444 15.1624V14.5126C131.444 13.1047 131.672 11.87 132.127 10.8087C132.583 9.7473 133.202 8.85921 133.983 8.1444C134.764 7.42959 135.675 6.89892 136.717 6.55236C137.78 6.18411 138.897 6 140.069 6C141.241 6 142.347 6.18411 143.389 6.55236C144.431 6.89892 145.342 7.42959 146.123 8.1444C146.926 8.85921 147.555 9.7473 148.011 10.8087C148.466 11.87 148.694 13.1047 148.694 14.5126V15.1624C148.694 16.6354 148.466 17.9242 148.011 19.0289C147.555 20.1336 146.926 21.0541 146.123 21.7906C145.342 22.5271 144.431 23.0794 143.389 23.4476C142.347 23.8159 141.241 24 140.069 24ZM140.069 20.361C141.284 20.361 142.293 19.9278 143.096 19.0614C143.921 18.1949 144.333 16.8953 144.333 15.1624V14.5126C144.333 12.9314 143.921 11.7292 143.096 10.9061C142.293 10.0614 141.284 9.639 140.069 9.639C138.832 9.639 137.813 10.0614 137.009 10.9061C136.207 11.7292 135.805 12.9314 135.805 14.5126V15.1624C135.805 16.917 136.207 18.2274 137.009 19.0939C137.813 19.9386 138.832 20.361 140.069 20.361Z" fill="black"/>
<path d="M152.099 6.38965H164.467V9.96367H156.395V23.6099H152.099V6.38965Z" fill="black"/>
<path d="M167.062 6.38965H171.358V17.4366L179.04 6.38965H183.011V23.6099H178.714V12.563L171.033 23.6099H167.062V6.38965Z" fill="black"/>
<path d="M190.41 17.1442C189.087 16.711 188.121 16.0611 187.514 15.1947C186.906 14.3283 186.602 13.3102 186.602 12.1406C186.602 11.2958 186.743 10.5269 187.025 9.83371C187.329 9.1189 187.774 8.51242 188.36 8.01421C188.946 7.49437 189.683 7.09363 190.573 6.81205C191.484 6.53047 192.548 6.38965 193.763 6.38965H201.9V23.6099H197.603V17.664H194.511L190.768 23.6099H185.951L190.41 17.1442ZM190.898 12.1406C190.898 12.877 191.137 13.4185 191.615 13.7651C192.114 14.1117 192.776 14.285 193.6 14.285H197.603V9.96367H193.6C192.776 9.96367 192.114 10.1478 191.615 10.516C191.137 10.8626 190.898 11.4041 190.898 12.1406Z" fill="black"/>
<path fill-rule="evenodd" clip-rule="evenodd" d="M7.72989 15.7203C7.539 15.7051 7.34601 15.6973 7.15116 15.6973C3.20169 15.6973 0 18.899 0 22.8484C0 26.7979 3.20169 29.9996 7.15116 29.9996C11.1006 29.9996 14.3023 26.7979 14.3023 22.8484C14.3023 22.5452 14.2834 22.2465 14.2468 21.9533C10.8651 21.6824 8.14683 19.0589 7.72989 15.7203Z" fill="black"/>
<path fill-rule="evenodd" clip-rule="evenodd" d="M14.3023 7.15116C14.3023 3.20169 11.1006 3.9237e-07 7.15116 0C3.20169 -6.38925e-07 3.92373e-07 3.20169 0 7.15116C-7.10451e-07 11.1006 3.20169 14.3023 7.15116 14.3023C7.33404 14.3023 7.51533 14.2954 7.69476 14.282C7.95906 10.7659 10.7659 7.95906 14.282 7.69476C14.2954 7.51533 14.3023 7.33404 14.3023 7.15116Z" fill="black"/>
<path fill-rule="evenodd" clip-rule="evenodd" d="M21.9537 14.2468C22.247 14.2834 22.5457 14.3023 22.8489 14.3023C26.7984 14.3023 30.0001 11.1006 30.0001 7.15116C30.0001 3.20169 26.7984 0 22.8489 0C18.8994 -9.24633e-07 15.6978 3.20169 15.6978 7.15116C15.6978 7.34598 15.7055 7.539 15.7208 7.72989C19.0593 8.14683 21.6829 10.865 21.9537 14.2468Z" fill="black"/>
<path fill-rule="evenodd" clip-rule="evenodd" d="M15.758 21.9161C15.7182 22.2212 15.6978 22.5324 15.6978 22.8484C15.6978 26.7979 18.8994 29.9996 22.8489 29.9996C26.7984 29.9996 30.0001 26.7979 30.0001 22.8484C30.0001 18.899 26.7984 15.6973 22.8489 15.6973C22.5329 15.6973 22.2217 15.7178 21.9166 15.7575C21.4995 18.9613 18.9618 21.499 15.758 21.9161Z" fill="black"/>
</g>
</svg>
