<svg width="175" height="36" viewBox="0 0 175 36" fill="none" xmlns="http://www.w3.org/2000/svg">
<path d="M19.965 36C29.9061 36 37.9651 27.9411 37.9651 18C37.9651 8.05887 29.9061 0 19.965 0C10.0238 0 1.96484 8.05887 1.96484 18C1.96484 27.9411 10.0238 36 19.965 36Z" fill="#CE2457"/>
<path fill-rule="evenodd" clip-rule="evenodd" d="M19.0775 7.17399C13.4969 7.63034 9.11035 12.304 9.11035 18.0021C9.11035 24.0026 13.9747 28.8669 19.9751 28.8669C25.9756 28.8669 30.8399 24.0026 30.8399 18.0021C30.8399 12.3033 26.4523 7.62931 20.8709 7.17383L20.5781 14.3101C22.3572 14.5984 23.7155 16.1417 23.7155 18.0021C23.7155 20.068 22.0409 21.7426 19.9751 21.7426C17.9093 21.7426 16.2346 20.068 16.2346 18.0021C16.2346 16.1423 17.5921 14.5996 19.3702 14.3104L19.0775 7.17399Z" fill="white"/>
<path d="M19.9633 6.41289C21.2585 6.41289 22.3084 5.36295 22.3084 4.06777C22.3084 2.7726 21.2585 1.72266 19.9633 1.72266C18.6681 1.72266 17.6182 2.7726 17.6182 4.06777C17.6182 5.36295 18.6681 6.41289 19.9633 6.41289Z" fill="white"/>
<path d="M62.4798 17.9963C62.4798 20.4755 61.573 22.4778 59.86 24.099C58.147 25.72 56.031 26.4827 53.5119 26.4827C50.9928 26.4827 48.9775 25.72 47.1637 24.099C45.5515 22.4778 44.6445 20.4755 44.6445 17.9963C44.6445 15.517 45.5515 13.5146 47.2644 11.8936C48.9775 10.2726 51.0935 9.50977 53.5119 9.50977C55.9302 9.50977 58.147 10.2726 59.86 11.8936C61.573 13.5146 62.4798 15.517 62.4798 17.9963ZM59.1547 17.9963C59.1547 16.566 58.6508 15.3263 57.5424 14.3728C56.5348 13.4192 55.1241 12.9425 53.5119 12.9425C51.8997 12.9425 50.5897 13.4192 49.4812 14.3728C48.3729 15.3263 47.869 16.566 47.869 17.9963C47.869 19.4266 48.3729 20.6661 49.4812 21.6197C50.4889 22.5732 51.8997 23.05 53.5119 23.05C55.1241 23.05 56.5348 22.5732 57.5424 21.6197C58.6508 20.6661 59.1547 19.4266 59.1547 17.9963Z" fill="#161618"/>
<path d="M73.1183 25.7208H69.3901V13.2294H63.6465V10.2734H78.7611V13.2294H73.1183V25.7208Z" fill="#161618"/>
<path d="M87.1109 26.1066C84.4912 26.1066 82.375 25.7253 80.6621 24.9624V21.9111C82.5766 22.7692 84.5918 23.1507 86.6072 23.1507C88.1186 23.1507 89.2271 22.96 90.1339 22.5785C90.94 22.1971 91.4439 21.625 91.4439 20.9575C91.4439 19.6226 90.2347 19.0504 87.7156 19.0504H84.5919V16.2852H87.7156C89.8317 16.2852 90.8393 15.7131 90.8393 14.5689C90.8393 13.3292 89.4286 12.757 86.708 12.757C84.8941 12.757 83.0804 13.1385 81.1659 13.9014V10.9454C82.8789 10.2779 84.9949 9.89648 87.514 9.89648C89.5294 9.89648 91.2424 10.2779 92.653 11.0407C93.963 11.8036 94.6684 12.8524 94.6684 13.9967C94.6684 15.7131 93.7615 16.8573 92.0485 17.4294C94.1645 18.0969 95.2729 19.3365 95.2729 21.2436C95.2729 22.6739 94.5676 23.9134 93.0561 24.7717C91.5447 25.7253 89.5294 26.1066 87.1109 26.1066Z" fill="#161618"/>
<path d="M115.605 17.9963C115.605 20.4755 114.698 22.4778 112.985 24.099C111.272 25.72 109.156 26.4827 106.637 26.4827C104.118 26.4827 102.103 25.72 100.289 24.099C98.5758 22.4778 97.6689 20.4755 97.6689 17.9963C97.6689 15.517 98.5758 13.5146 100.289 11.8936C102.103 10.2726 104.219 9.50977 106.738 9.50977C109.257 9.50977 111.373 10.2726 113.086 11.8936C114.698 13.5146 115.605 15.517 115.605 17.9963ZM112.38 17.9963C112.38 16.566 111.877 15.3263 110.768 14.3728C109.761 13.4192 108.35 12.9425 106.738 12.9425C105.125 12.9425 103.815 13.4192 102.707 14.3728C101.599 15.3263 101.095 16.566 101.095 17.9963C101.095 19.4266 101.599 20.6661 102.707 21.6197C103.715 22.5732 105.125 23.05 106.738 23.05C108.35 23.05 109.761 22.5732 110.768 21.6197C111.776 20.6661 112.38 19.4266 112.38 17.9963Z" fill="#161618"/>
<path d="M128.704 25.7208H118.93V10.2734H128.2C129.812 10.2734 131.122 10.6549 132.13 11.3224C133.138 11.9898 133.541 13.0387 133.541 14.1829C133.541 14.9458 133.339 15.6132 132.935 16.1854C132.533 16.7575 132.029 17.2343 131.323 17.5203C133.541 18.0924 134.649 19.4274 134.649 21.5252C134.649 22.8602 134.145 23.909 133.037 24.6719C132.029 25.3393 130.618 25.7208 128.704 25.7208ZM122.658 13.0387V16.4714H127.293C128.099 16.4714 128.704 16.2807 129.207 15.9947C129.611 15.7086 129.912 15.2319 129.912 14.7551C129.912 13.6109 129.107 13.0387 127.394 13.0387H122.658ZM122.658 19.1414V22.9556H127.999C128.906 22.9556 129.51 22.7648 130.014 22.4788C130.518 22.0973 130.719 21.7159 130.719 21.0485C130.719 20.4763 130.518 19.9995 130.014 19.6181C129.51 19.2368 128.804 19.1414 127.999 19.1414H122.658Z" fill="#161618"/>
<path d="M141.599 25.713H138.072V10.2656H141.801V20.7546L150.97 10.2656H154.497V25.713H150.769V15.2241L141.599 25.713Z" fill="#161618"/>
<path d="M162.103 25.713H158.375V10.2656H162.103V25.713Z" fill="#161618"/>
<path d="M166.036 17.7055L173.505 25.6199H168.683L161.591 17.8962L168.211 10.3633H172.844L166.036 17.7055Z" fill="#161618"/>
</svg>
