<svg width="125" height="36" viewBox="0 0 125 36" fill="none" xmlns="http://www.w3.org/2000/svg">
<g clip-path="url(#clip0_1130_11590)">
<path d="M119.013 31.3474C121.459 31.3474 123.191 30.9059 124.481 29.9549V25.6417C123.157 26.5587 121.56 27.1361 119.319 27.1361C115.549 27.1361 113.987 24.2153 113.987 19.5964C113.987 14.7398 115.889 12.2606 119.353 12.2606C121.391 12.2606 123.394 12.9738 124.447 13.653V9.17002C123.327 8.5587 121.391 8.11719 118.742 8.11719C111.983 8.11719 108.485 12.9738 108.485 19.7662C108.519 27.204 111.949 31.3474 119.013 31.3474ZM85.968 29.3776V25.0644C84.3378 26.1851 81.5529 27.17 79.0058 27.17C75.1341 27.17 73.6737 25.3361 73.4359 21.6002H86.2058V18.8153C86.2058 11.0379 82.7756 8.11719 77.5114 8.11719C71.0586 8.11719 68.002 13.0417 68.002 19.8002C68.002 27.5776 71.8397 31.3474 78.5643 31.3474C81.9265 31.3474 84.4058 30.4304 85.968 29.3776ZM37.5039 8.52473V17.3549H30.4397V8.52473H25.1416V30.9059H30.4397V21.5662H37.5039V30.9059H42.802V8.52473H37.5039ZM66.6775 26.6945H64.3341V8.52473H48.9152V10.4266C48.9152 15.8945 48.5756 22.9587 46.7076 26.6945H45.0095V36.0002H49.9001V30.9059H61.7529V36.0002H66.6435V26.6945H66.6775ZM102.847 30.9059H108.859L100.368 18.8493L107.84 8.52473H102.508L95.0359 18.8493V8.52473H89.7378V30.9059H95.0359V19.9021L102.847 30.9059ZM77.3756 12.2606C79.9907 12.2606 80.8058 14.4342 80.8058 17.253V17.6945H73.4359C73.5718 14.1285 74.8624 12.2606 77.3756 12.2606ZM59.0359 26.6945H51.5642C53.0246 23.3323 53.4322 17.2191 53.4322 13.3474V12.6681H59.0359V26.6945Z" fill="#161618"/>
<path d="M20.7264 30.9057H15.3264V4.17736H12.915C8.49996 4.17736 6.19052 6.38491 6.19052 9.67924C6.19052 13.4151 7.78675 15.1472 11.0811 17.3547L13.7981 19.1887L5.98675 30.9057H0.179199L7.20939 20.4453C3.16788 17.5585 0.892407 14.7396 0.892407 9.98491C0.892407 4.04151 5.0358 0 12.8811 0H20.6924V30.9057H20.7264Z" fill="#FC3F1D"/>
</g>
<defs>
<clipPath id="clip0_1130_11590">
<rect width="124.642" height="36" fill="white" transform="translate(0.179199)"/>
</clipPath>
</defs>
</svg>
