<svg width="169" height="36" viewBox="0 0 169 36" fill="none" xmlns="http://www.w3.org/2000/svg">
<g clip-path="url(#clip0_1130_11602)">
<path d="M65.6875 14.7881H68.2609L69.6037 11.6604H75.6459L76.9886 14.7881H79.5622L73.9675 1.60742H71.2822L65.6875 14.7881ZM70.4989 9.42644L72.6248 4.39993L74.7508 9.42644H70.4989Z" fill="#161618"/>
<path d="M91.9744 10.8793C91.661 11.2591 91.303 11.5718 90.8778 11.8399C90.1394 12.309 89.0652 12.7782 87.6105 12.7782C84.7013 12.7782 82.5753 10.6559 82.5753 8.19847C82.5753 5.74107 84.7013 3.61877 87.6105 3.61877C89.0204 3.61877 90.0722 4.11026 90.7883 4.57939C91.2135 4.84747 91.5716 5.16024 91.8625 5.51768L93.4289 3.95386C93.0486 3.48473 92.5562 3.06026 91.9967 2.68049C91.0345 2.03263 89.5798 1.38477 87.6105 1.38477C83.2467 1.38477 80.1138 4.51238 80.1138 8.19847C80.1138 11.8846 83.2467 15.0121 87.6105 15.0121C89.5798 15.0121 91.0568 14.3867 92.0415 13.7388C92.6234 13.359 93.1157 12.9122 93.5408 12.4431L91.9744 10.8793Z" fill="#161618"/>
<path d="M94.874 14.7881H97.4476L98.7903 11.6604H104.832L106.175 14.7881H108.749L103.154 1.60742H100.469L94.874 14.7881ZM99.6854 9.42644L101.811 4.39993L103.937 9.42644H99.6854Z" fill="#161618"/>
<path d="M110.979 14.7881H115.79C120.266 14.7881 123.175 11.8838 123.175 8.19773C123.175 4.51164 120.266 1.60742 115.79 1.60742H110.979V14.7881ZM113.44 12.554V3.84143H115.79C118.811 3.84143 120.713 5.76268 120.713 8.19773C120.713 10.6551 118.811 12.554 115.79 12.554H113.44Z" fill="#161618"/>
<path d="M125.753 14.7881H136.047V12.4423H128.215V9.09134H134.257V6.85733H128.215V3.95313H135.823V1.60742H125.753V14.7881Z" fill="#161618"/>
<path d="M153.624 1.60742H151.387L146.24 7.63924L141.092 1.60742H138.854V14.7881H141.316V5.62864L146.24 11.437L151.162 5.62864V14.7881H153.624V1.60742Z" fill="#161618"/>
<path d="M163.591 10.0966L168.962 1.60742H166.165L162.36 7.63924L158.556 1.60742H155.758L161.129 10.0966V14.7881H163.591V10.0966Z" fill="#161618"/>
<path d="M81.0727 21.1562H78.8348L73.6877 27.188L68.5407 21.1562H66.3027V34.3368H68.7644V25.1775L73.6877 30.9859L78.611 25.1775V34.3368H81.0727V21.1562Z" fill="#161618"/>
<path d="M82.8706 34.3368H85.4442L86.7869 31.2092H92.829L94.1718 34.3368H96.7453L91.1507 21.1562H88.4653L82.8706 34.3368ZM87.682 28.9753L89.8079 23.9487L91.9339 28.9753H87.682Z" fill="#161618"/>
<path d="M98.5278 34.3368H100.99V29.6455H104.123L106.92 34.3368H109.717L106.584 29.3104C107.054 29.1093 107.479 28.8413 107.86 28.4838C108.509 27.8806 109.158 26.92 109.158 25.4009C109.158 22.9435 107.39 21.1562 104.458 21.1562H98.5278V34.3368ZM100.99 27.4115V23.3903H104.458C105.801 23.3903 106.696 24.2615 106.696 25.4009C106.696 26.5402 105.801 27.4115 104.458 27.4115H100.99Z" fill="#161618"/>
<path d="M111.833 34.3368H114.294V30.3156L116.308 28.305L120.896 34.3368H123.805L117.987 26.6295L123.469 21.1562H120.336L114.294 27.188V21.1562H111.833V34.3368Z" fill="#161618"/>
<path d="M125.59 34.3368H135.885V31.9911H128.052V28.6402H134.094V26.4062H128.052V23.5019H135.661V21.1562H125.59V34.3368Z" fill="#161618"/>
<path d="M141.714 34.3368H144.174V23.5019H148.316V21.1562H137.573V23.5019H141.714V34.3368Z" fill="#161618"/>
<path d="M24.5493 36C24.8597 36 25.1379 35.8125 25.2478 35.5291L35.2678 9.71295C35.2941 9.64497 35.3609 9.6 35.4354 9.6C35.509 9.6 35.5751 9.64401 35.6021 9.71093L46.0018 35.5374C46.1142 35.8164 46.39 35.9999 46.6971 35.9999H54.6753C55.2067 35.9999 55.5682 35.4734 55.3664 34.9934L40.8478 0.452512C40.7328 0.178759 40.4597 0 40.1568 0H30.7172C30.4117 0 30.137 0.181606 30.0235 0.458561L15.8735 34.9996C15.6772 35.4788 16.0386 36 16.5671 36H24.5493Z" fill="#4070F4"/>
<path d="M7.81988 35.9999C8.12084 35.9999 8.3924 35.8236 8.50882 35.5526L19.3434 10.3332C19.4262 10.1406 19.4204 9.9227 19.3276 9.73456L15.3476 1.66303C15.0666 1.09323 14.2269 1.11862 13.9825 1.7043L0.0945273 34.9952C-0.105621 35.4749 0.255867 35.9999 0.786428 35.9999H7.81988Z" fill="#4070F4"/>
</g>
<defs>
<clipPath id="clip0_1130_11602">
<rect width="168.923" height="36" fill="white" transform="translate(0.0385742)"/>
</clipPath>
</defs>
</svg>
