<svg width="127" height="51" viewBox="0 0 127 51" fill="none" xmlns="http://www.w3.org/2000/svg">
<g clip-path="url(#clip0_1200_4693)">
<path d="M121.409 0.0839844H5.59082C2.5031 0.0839844 0 2.59451 0 5.69139V44.4766C0 47.5735 2.5031 50.084 5.59082 50.084H121.409C124.497 50.084 127 47.5735 127 44.4766V5.69139C127 2.59451 124.497 0.0839844 121.409 0.0839844Z" fill="#333333"/>
<path d="M62.152 24.1897C61.5233 23.9472 60.7011 23.8745 59.8065 23.8745H54.8248V22.3222H63.3854V19.6543H51.3184V31.1992H59.492C60.6286 31.1992 61.4748 31.1022 62.1037 30.8595C63.4338 30.3501 64.3285 29.1132 64.3285 27.4882C64.3285 25.8391 63.4821 24.6991 62.152 24.1897ZM60.4109 28.1916C60.2175 28.2644 59.9515 28.2886 59.6128 28.2886H54.8248V26.4453H59.6128C59.9999 26.4453 60.3141 26.4698 60.556 26.5909C60.8461 26.7365 60.9913 27.0033 60.9913 27.3427C60.9913 27.6822 60.8221 28.0461 60.4109 28.1916Z" fill="white"/>
<path d="M74.16 19.6543H69.0334L64.3179 31.1992H68.2838L68.9367 29.5256H74.2567L74.9339 31.1992H78.8757L74.16 19.6543ZM69.8072 26.9789L71.4759 22.3222H71.7418L73.4104 26.9789H69.8072Z" fill="white"/>
<path d="M83.3886 26.9063V31.1992H79.8823V19.6543H83.3886V23.8745H89.0231V19.6543H92.5296V31.1992H89.0231V26.9063H83.3886Z" fill="white"/>
<path d="M98.0797 26.8335V31.1992H94.5732V19.6543H98.0797V23.9958H99.047L103.279 19.6543H107.68L102.07 25.1842L107.898 31.1992H103.23L99.047 26.8335H98.0797Z" fill="white"/>
<path d="M16.7861 12.2344H44.7405V26.3351C44.7405 29.9499 42.8178 33.2902 39.6967 35.0978L30.7633 40.2716L21.8299 35.0978C18.7088 33.2902 16.7861 29.9499 16.7861 26.3351V12.2344Z" fill="#FFDD2D"/>
<path fill-rule="evenodd" clip-rule="evenodd" d="M24.458 19.6543V24.0399C25.0559 23.3627 26.1431 22.9044 27.3861 22.9044H28.737V28.0026C28.737 29.359 28.3695 30.5462 27.8243 31.1992H33.7001C33.1561 30.5455 32.7895 29.3598 32.7895 28.0052V22.9044H34.1404C35.3834 22.9044 36.4705 23.3627 37.0685 24.0399V19.6543H24.458Z" fill="#333333"/>
</g>
<defs>
<clipPath id="clip0_1200_4693">
<rect width="127" height="50" fill="white" transform="translate(0 0.0839844)"/>
</clipPath>
</defs>
</svg>
