<svg width="17" height="17" viewBox="0 0 17 17" fill="none" xmlns="http://www.w3.org/2000/svg">
<path d="M0 8.5C0 3.80558 3.80558 0 8.5 0C13.1944 0 17 3.80558 17 8.5C17 13.1944 13.1944 17 8.5 17C3.80558 17 0 13.1944 0 8.5Z" fill="#303032"/>
<path fill-rule="evenodd" clip-rule="evenodd" d="M12.2203 5.2736C12.4717 5.58785 12.4207 6.04641 12.1065 6.29782C11.2705 6.9666 10.419 8.09625 9.67415 9.29421C8.9382 10.4778 8.34431 11.6654 8.01051 12.3937C7.89785 12.6395 7.65835 12.8027 7.38838 12.8176C7.11841 12.8326 6.86235 12.6968 6.72324 12.465C6.48419 12.0666 6.04467 11.5357 5.55826 11.0265C5.07357 10.519 4.59316 10.086 4.30015 9.87295C3.97468 9.63624 3.90272 9.1805 4.13942 8.85503C4.37613 8.52956 4.83186 8.45761 5.15733 8.69431C5.55034 8.98013 6.09896 9.48261 6.61211 10.0198C6.8161 10.2334 7.02259 10.4608 7.21758 10.6912C7.54958 10.0412 7.96456 9.28368 8.43651 8.52466C9.20398 7.29038 10.1611 5.98779 11.1961 5.1598C11.5103 4.90839 11.9689 4.95934 12.2203 5.2736Z" fill="#69696B"/>
</svg>
