<svg width="17" height="18" viewBox="0 0 17 18" fill="none" xmlns="http://www.w3.org/2000/svg">
<rect y="0.416016" width="17" height="17" rx="8.5" fill="#F2F2F2"/>
<path fill-rule="evenodd" clip-rule="evenodd" d="M12.2203 5.68952C12.4717 6.00378 12.4207 6.46234 12.1065 6.71374C11.2705 7.38252 10.419 8.51217 9.67415 9.71014C8.9382 10.8937 8.34431 12.0813 8.01051 12.8096C7.89785 13.0554 7.65835 13.2186 7.38838 13.2336C7.11841 13.2485 6.86235 13.1128 6.72324 12.8809C6.48419 12.4825 6.04467 11.9516 5.55826 11.4424C5.07357 10.935 4.59316 10.502 4.30015 10.2889C3.97468 10.0522 3.90272 9.59643 4.13942 9.27096C4.37613 8.94549 4.83186 8.87353 5.15733 9.11024C5.55034 9.39606 6.09896 9.89853 6.61211 10.4357C6.8161 10.6493 7.02259 10.8768 7.21758 11.1071C7.54958 10.4571 7.96456 9.6996 8.43651 8.94058C9.20398 7.7063 10.1611 6.40371 11.1961 5.57572C11.5103 5.32432 11.9689 5.37527 12.2203 5.68952Z" fill="#161618"/>
</svg>
