<svg width="17" height="17" viewBox="0 0 17 17" fill="none" xmlns="http://www.w3.org/2000/svg">
<rect width="17" height="17" rx="8.5" fill="#DADADA"/>
<path fill-rule="evenodd" clip-rule="evenodd" d="M12.2203 5.27351C12.4717 5.58776 12.4207 6.04632 12.1065 6.29773C11.2705 6.9665 10.419 8.09616 9.67415 9.29412C8.9382 10.4777 8.34431 11.6653 8.01051 12.3936C7.89785 12.6394 7.65835 12.8026 7.38838 12.8175C7.11841 12.8325 6.86235 12.6967 6.72324 12.4649C6.48419 12.0665 6.04467 11.5356 5.55826 11.0264C5.07357 10.519 4.59316 10.086 4.30015 9.87285C3.97468 9.63615 3.90272 9.18041 4.13942 8.85494C4.37613 8.52947 4.83186 8.45751 5.15733 8.69422C5.55034 8.98004 6.09896 9.48252 6.61211 10.0197C6.8161 10.2333 7.02259 10.4607 7.21758 10.6911C7.54958 10.0411 7.96456 9.28359 8.43651 8.52457C9.20398 7.29029 10.1611 5.98769 11.1961 5.15971C11.5103 4.9083 11.9689 4.95925 12.2203 5.27351Z" fill="#161618"/>
</svg>
