<svg width="34" height="34" viewBox="0 0 34 34" fill="none" xmlns="http://www.w3.org/2000/svg">
<rect width="34" height="34" rx="7" fill="#F2F2F2"/>
<path fill-rule="evenodd" clip-rule="evenodd" d="M12.2835 12.2808C9.22203 13.2365 7 16.0938 7 19.4701C7 23.6288 10.3713 27.0001 14.5301 27.0001C17.9107 27.0001 20.7711 24.7723 21.723 21.7046C21.7762 21.6964 21.8294 21.6836 21.8822 21.6657C24.8575 20.6609 27.0017 17.8471 27.0017 14.5301C27.0017 10.3713 23.6303 7 19.4716 7C16.0953 7 13.2401 9.22124 12.2835 12.2808ZM14.456 11.9404C14.4807 11.9401 14.5054 11.94 14.5301 11.94C18.6888 11.94 22.0601 15.3113 22.0601 19.4701C22.0601 19.4956 22.06 19.521 22.0597 19.5464C23.8752 18.6078 25.1149 16.7128 25.1149 14.5301C25.1149 11.4134 22.5883 8.8868 19.4716 8.8868C17.2892 8.8868 15.3947 10.1262 14.456 11.9404ZM14.5301 13.8268C11.4134 13.8268 8.8868 16.3534 8.8868 19.4701C8.8868 22.5867 11.4134 25.1133 14.5301 25.1133C17.6468 25.1133 20.1733 22.5867 20.1733 19.4701C20.1733 16.3534 17.6468 13.8268 14.5301 13.8268Z" fill="#161618"/>
</svg>
