<svg width="35" height="34" viewBox="0 0 35 34" fill="none" xmlns="http://www.w3.org/2000/svg">
<rect x="0.800781" width="34" height="34" rx="7" fill="#F2F2F2"/>
<path fill-rule="evenodd" clip-rule="evenodd" d="M9.72469 10.9771C9.7247 9.3329 11.0576 8 12.7018 8H22.1589C23.8031 8 25.136 9.33291 25.136 10.9771V16.7563C25.136 17.2399 24.744 17.6319 24.2604 17.6319C23.7768 17.6319 23.3848 17.2399 23.3848 16.7563V10.9771C23.3848 10.3001 22.8359 9.75126 22.1589 9.75126H12.7018C12.0248 9.75126 11.476 10.3001 11.476 10.9771L11.4759 23.5862C11.4759 24.2632 12.0247 24.812 12.7017 24.812H16.9048C17.3884 24.812 17.7804 25.2041 17.7804 25.6877C17.7804 26.1713 17.3884 26.5633 16.9048 26.5633H12.7017C11.0575 26.5633 9.7246 25.2304 9.72461 23.5861L9.72469 10.9771ZM13.4026 13.0787C13.4026 12.5951 13.7946 12.203 14.2782 12.203H20.5827C21.0663 12.203 21.4584 12.5951 21.4584 13.0787C21.4584 13.5623 21.0663 13.9543 20.5827 13.9543H14.2782C13.7946 13.9543 13.4026 13.5623 13.4026 13.0787ZM13.4026 16.2309C13.4026 15.7473 13.7946 15.3553 14.2782 15.3553H20.5827C21.0663 15.3553 21.4584 15.7473 21.4584 16.2309C21.4584 16.7145 21.0663 17.1066 20.5827 17.1066H14.2782C13.7946 17.1066 13.4026 16.7145 13.4026 16.2309ZM13.4026 19.3832C13.4026 18.8996 13.7946 18.5076 14.2782 18.5076H17.4305C17.9141 18.5076 18.3061 18.8996 18.3061 19.3832C18.3061 19.8668 17.9141 20.2588 17.4305 20.2588H14.2782C13.7946 20.2588 13.4026 19.8668 13.4026 19.3832ZM23.029 18.5076C23.5126 18.5076 23.9047 18.8996 23.9047 19.3832V21.4795L26.001 21.4795C26.4846 21.4795 26.8767 21.8716 26.8767 22.3552C26.8767 22.8388 26.4846 23.2308 26.001 23.2308L23.9047 23.2308V25.3272C23.9047 25.8108 23.5126 26.2028 23.029 26.2028C22.5454 26.2028 22.1534 25.8108 22.1534 25.3272V23.2308L20.0571 23.2308C19.5735 23.2308 19.1814 22.8388 19.1814 22.3552C19.1814 21.8716 19.5735 21.4795 20.0571 21.4795L22.1534 21.4795V19.3832C22.1534 18.8996 22.5454 18.5076 23.029 18.5076Z" fill="#161618"/>
</svg>
