<svg width="35" height="34" viewBox="0 0 35 34" fill="none" xmlns="http://www.w3.org/2000/svg">
<rect x="0.398438" width="34" height="34" rx="7" fill="#F2F2F2"/>
<path fill-rule="evenodd" clip-rule="evenodd" d="M9.92684 10.8868C9.92685 9.29246 11.2193 8 12.8136 8H20.5144C21.0413 8 21.5347 8.22167 21.8875 8.59294C22.1794 8.90001 22.6315 9.36178 23.0593 9.74462C23.442 10.087 24.0219 10.6806 24.3526 11.0236C24.6885 11.372 24.8706 11.8348 24.8706 12.3114L24.8705 12.918C24.8706 12.9202 24.8706 12.9224 24.8706 12.9246C24.8706 12.9268 24.8706 12.929 24.8705 12.9312L24.8703 23.1134C24.8703 24.7077 23.5778 26.0001 21.9835 26.0001L12.8136 26.0001C11.2192 26.0001 9.92675 24.7076 9.92676 23.1132L9.92684 10.8868ZM23.0076 12.0755C22.6725 11.7301 22.2178 11.2703 21.927 11.0101C21.5155 10.6419 21.0966 10.2205 20.7951 9.90746V11.9057C20.7951 11.9995 20.8711 12.0755 20.9649 12.0755H23.0076ZM19.0969 9.69812V11.9057C19.0969 12.9373 19.9333 13.7736 20.9649 13.7736H23.1724L23.1722 23.1133C23.1722 23.7698 22.64 24.302 21.9835 24.302L12.8136 24.302C12.1571 24.302 11.6249 23.7698 11.6249 23.1133L11.625 10.8868C11.625 10.2303 12.1572 9.69812 12.8136 9.69812H19.0969ZM13.4931 12.9246C13.4931 12.4556 13.8733 12.0755 14.3422 12.0755H16.38C16.8489 12.0755 17.229 12.4556 17.229 12.9246C17.229 13.3935 16.8489 13.7736 16.38 13.7736H14.3422C13.8733 13.7736 13.4931 13.3935 13.4931 12.9246ZM13.4931 15.9812C13.4931 15.5123 13.8733 15.1321 14.3422 15.1321H20.4555C20.9244 15.1321 21.3045 15.5123 21.3045 15.9812C21.3045 16.4501 20.9244 16.8302 20.4555 16.8302H14.3422C13.8733 16.8302 13.4931 16.4501 13.4931 15.9812ZM13.4931 19.0378C13.4931 18.5689 13.8733 18.1887 14.3422 18.1887H20.4555C20.9244 18.1887 21.3045 18.5689 21.3045 19.0378C21.3045 19.5067 20.9244 19.8869 20.4555 19.8869H14.3422C13.8733 19.8869 13.4931 19.5067 13.4931 19.0378Z" fill="#161618"/>
</svg>
