<svg width="24" height="12" viewBox="0 0 24 12" fill="none" xmlns="http://www.w3.org/2000/svg">
<path d="M4.64551 0.50293C4.63838 0.506659 4.621 0.517351 4.59961 0.544922L0.580078 5.73047C0.473418 5.86834 0.473418 6.13166 0.580078 6.26953L4.59961 11.4551C4.621 11.4826 4.63838 11.4933 4.64551 11.4971C4.65163 11.5002 4.65313 11.5001 4.65137 11.5C4.65251 11.4996 4.65465 11.4984 4.65723 11.4971C4.66458 11.4931 4.68118 11.4821 4.70215 11.4551C4.80903 11.3172 4.80903 11.0529 4.70215 10.915L1.76074 7.12109L1.13574 6.31445H23.3682L23.375 6.31152C23.3835 6.3068 23.4003 6.29481 23.4199 6.26953C23.4608 6.21674 23.5 6.12317 23.5 6C23.5 5.87683 23.4608 5.78326 23.4199 5.73047C23.4003 5.70519 23.3835 5.6932 23.375 5.68848L23.3682 5.68555H1.13574L1.76074 4.87891L4.70215 1.08496C4.80903 0.947073 4.80903 0.68281 4.70215 0.544922C4.68118 0.517908 4.66458 0.506858 4.65723 0.50293C4.65465 0.501584 4.65251 0.500368 4.65137 0.5C4.65313 0.499915 4.65163 0.499769 4.64551 0.50293Z" fill="#1C1D26" stroke="black"/>
</svg>
