<svg width="147" height="50" viewBox="0 0 147 50" fill="none" xmlns="http://www.w3.org/2000/svg">
<path d="M106.941 39.383V33.417H111.841V34.6898H108.607V39.383H106.941Z" fill="#21232F"/>
<path d="M103.699 39.383V37.0364H100.365V39.383H98.6982V33.417H100.365V35.7636H103.699V33.417H105.365V39.383H103.699Z" fill="#21232F"/>
<path d="M97.1199 33.417V39.383H95.4531V35.6841L92.2644 39.383H90.5976V33.417H92.2644V37.1398L95.4531 33.417H97.1199Z" fill="#21232F"/>
<path d="M89.0066 33.417V39.383H87.3398V37.7284C86.9231 37.9352 86.4068 38.0784 85.6821 38.0784C83.6348 38.0784 82.6293 37.283 82.6293 35.4932V33.417H84.3052V35.5489C84.3052 36.4398 84.8034 36.8295 85.7455 36.8295C86.4702 36.8295 87.0047 36.6466 87.3398 36.4795V33.417H89.0066Z" fill="#21232F"/>
<path d="M74.9434 33.417H76.7189L78.4219 36.1932L79.6811 33.417H81.4656L79.4908 37.3943C78.7027 38.9932 77.5885 39.4864 76.6102 39.4864C75.9761 39.4864 75.3873 39.2716 74.9977 39.017L75.5775 37.8875C75.8674 38.0784 76.1935 38.1898 76.5196 38.1898C76.9272 38.1898 77.3258 38.0148 77.6791 37.5773L74.9434 33.417Z" fill="#21232F"/>
<path d="M66.4947 36.4C66.4947 34.3239 67.935 33.25 70.2178 33.25C72.5096 33.25 73.95 34.3318 73.95 36.4C73.95 38.4682 72.5096 39.55 70.2178 39.55C67.935 39.55 66.4947 38.4682 66.4947 36.4ZM70.2178 38.2773C71.5313 38.2773 72.2741 37.5852 72.2741 36.4C72.2741 35.1909 71.5313 34.5148 70.2178 34.5148C68.9133 34.5148 68.1705 35.2148 68.1705 36.4C68.1705 37.5852 68.9133 38.2773 70.2178 38.2773Z" fill="#21232F"/>
<path d="M58.8135 39.383V33.417H60.4803V35.7716H61.6941L63.5331 33.417H65.4716L63.0982 36.2648L65.6618 39.383H63.6236L61.7304 37.0125H60.4803V39.383H58.8135Z" fill="#21232F"/>
<path fill-rule="evenodd" clip-rule="evenodd" d="M128.881 17.5584C128.881 12.1759 132.381 9.39178 137.929 9.39178C143.499 9.39178 147 12.1965 147 17.5584C147 22.9204 143.499 25.7251 137.929 25.7251C132.381 25.7251 128.881 22.9204 128.881 17.5584ZM137.929 22.4255C141.122 22.4255 142.927 20.6313 142.927 17.5584C142.927 14.4238 141.122 12.6708 137.929 12.6708C134.759 12.6708 132.954 14.4856 132.954 17.5584C132.954 20.6313 134.759 22.4255 137.929 22.4255ZM120.428 13.1245H115.365V18.1565H115.365V21.4149H115.365V25.292H111.314V9.82486H120.384C124.237 9.82486 127.143 11.2891 127.143 15.3518C127.143 18.1153 125.558 19.7857 123.444 20.59L127.429 25.292H122.52L119.481 21.4149H118.625V18.1565H120.428C122.123 18.1565 123.07 17.3728 123.07 15.7436C123.07 13.7638 121.705 13.1245 120.428 13.1245ZM97.4446 13.1245H102.244C103.565 13.1245 104.974 13.7845 104.974 15.8055C104.974 17.8265 103.565 18.3009 102.244 18.3009H97.4446V13.1245ZM93.3937 25.292H97.4446V21.6005H102.222C106.119 21.6005 109.025 19.9095 109.025 15.7849C109.025 11.6603 106.119 9.82486 102.222 9.82486H93.3937V25.292ZM75.2368 25.292V9.82486H82.8762C87.7637 9.82486 91.0441 12.4646 91.0441 17.6409C91.0441 22.7967 87.7637 25.292 82.8762 25.292H75.2368ZM83.0964 13.042H79.2877V22.0749H83.0964C85.276 22.0749 86.9932 20.59 86.9932 17.5172C86.9932 14.4444 85.276 13.042 83.0964 13.042ZM58.7998 9.82486V25.292H72.4936V21.9924H62.8507V19.0845H71.5689V16.0323H62.8507V13.1245H72.4936V9.82486H58.7998Z" fill="#21232F"/>
<path d="M0 25.5C0 16.3408 0 11.7612 1.96943 8.35C3.25962 6.11532 5.11532 4.25962 7.35 2.96943C10.7611 1 15.3408 1 24.5 1C33.6592 1 38.2389 1 41.65 2.96943C43.8847 4.25962 45.7404 6.11532 47.0306 8.35C49 11.7612 49 16.3408 49 25.5C49 34.6592 49 39.2389 47.0306 42.65C45.7404 44.8847 43.8847 46.7404 41.65 48.0306C38.2389 50 33.6592 50 24.5 50C15.3408 50 10.7611 50 7.35 48.0306C5.11532 46.7404 3.25962 44.8847 1.96943 42.65C0 39.2389 0 34.6592 0 25.5Z" fill="white"/>
<path d="M9.77246 17.6025C9.77246 14.3827 9.77246 12.7728 10.7727 11.7725C11.773 10.7722 13.3829 10.7722 16.6027 10.7722C19.8225 10.7722 21.4324 10.7722 22.4327 11.7725C23.4329 12.7728 23.4329 14.3827 23.4329 17.6025C23.4329 20.8223 23.4329 22.4322 22.4327 23.4324C21.4324 24.4327 19.8225 24.4327 16.6027 24.4327C13.3829 24.4327 11.773 24.4327 10.7727 23.4324C9.77246 22.4322 9.77246 20.8223 9.77246 17.6025Z" fill="#7E93AC"/>
<path d="M9.77246 17.6025C9.77246 14.3827 9.77246 12.7728 10.7727 11.7725C11.773 10.7722 13.3829 10.7722 16.6027 10.7722C19.8225 10.7722 21.4324 10.7722 22.4327 11.7725C23.4329 12.7728 23.4329 14.3827 23.4329 17.6025C23.4329 20.8223 23.4329 22.4322 22.4327 23.4324C21.4324 24.4327 19.8225 24.4327 16.6027 24.4327C13.3829 24.4327 11.773 24.4327 10.7727 23.4324C9.77246 22.4322 9.77246 20.8223 9.77246 17.6025Z" fill="#7E93AC"/>
<path d="M25.5674 17.6025C25.5674 14.3827 25.5674 12.7728 26.5676 11.7725C27.5679 10.7722 29.1778 10.7722 32.3976 10.7722C35.6174 10.7722 37.2273 10.7722 38.2276 11.7725C39.2278 12.7728 39.2278 14.3827 39.2278 17.6025C39.2278 20.8223 39.2278 22.4322 38.2276 23.4324C37.2273 24.4327 35.6174 24.4327 32.3976 24.4327C29.1778 24.4327 27.5679 24.4327 26.5676 23.4324C25.5674 22.4322 25.5674 20.8223 25.5674 17.6025Z" fill="#4C77AA"/>
<path d="M25.5674 17.6025C25.5674 14.3827 25.5674 12.7728 26.5676 11.7725C27.5679 10.7722 29.1778 10.7722 32.3976 10.7722C35.6174 10.7722 37.2273 10.7722 38.2276 11.7725C39.2278 12.7728 39.2278 14.3827 39.2278 17.6025C39.2278 20.8223 39.2278 22.4322 38.2276 23.4324C37.2273 24.4327 35.6174 24.4327 32.3976 24.4327C29.1778 24.4327 27.5679 24.4327 26.5676 23.4324C25.5674 22.4322 25.5674 20.8223 25.5674 17.6025Z" fill="#4C77AA"/>
<path d="M9.77246 33.3974C9.77246 30.1776 9.77246 28.5677 10.7727 27.5674C11.773 26.5672 13.3829 26.5671 16.6027 26.5671C19.8225 26.5671 21.4324 26.5672 22.4327 27.5674C23.4329 28.5677 23.4329 30.1776 23.4329 33.3974C23.4329 36.6172 23.4329 38.2271 22.4327 39.2273C21.4324 40.2276 19.8225 40.2276 16.6027 40.2276C13.3829 40.2276 11.773 40.2276 10.7727 39.2273C9.77246 38.2271 9.77246 36.6172 9.77246 33.3974Z" fill="#173C69"/>
<path d="M9.77246 33.3974C9.77246 30.1776 9.77246 28.5677 10.7727 27.5674C11.773 26.5672 13.3829 26.5671 16.6027 26.5671C19.8225 26.5671 21.4324 26.5672 22.4327 27.5674C23.4329 28.5677 23.4329 30.1776 23.4329 33.3974C23.4329 36.6172 23.4329 38.2271 22.4327 39.2273C21.4324 40.2276 19.8225 40.2276 16.6027 40.2276C13.3829 40.2276 11.773 40.2276 10.7727 39.2273C9.77246 38.2271 9.77246 36.6172 9.77246 33.3974Z" fill="#173C69"/>
</svg>
