<svg width="39" height="40" viewBox="0 0 39 40" fill="none" xmlns="http://www.w3.org/2000/svg">
<rect y="0.916016" width="39" height="39" rx="19.5" fill="white"/>
<g clip-path="url(#clip0_1130_10572)">
<path d="M21.0007 21.9157L29.8986 21.9157C30.4512 21.916 30.8993 21.4679 30.8991 20.9153C30.8991 20.3624 30.4515 19.9148 29.8986 19.9148H21.0007L21.0005 11.0166C21.0005 10.4638 20.5528 10.0162 20 10.0162C19.4474 10.0159 18.9993 10.464 18.9995 11.0166L18.9998 19.9148L10.1016 19.9146C9.54901 19.9143 9.10091 20.3624 9.10114 20.915C9.10138 21.1912 9.21341 21.4414 9.3943 21.6223C9.57519 21.8032 9.82542 21.9153 10.1018 21.9153L19 21.9155V30.8134C19 31.0898 19.112 31.3401 19.2929 31.521C19.4738 31.7019 19.7241 31.8139 20.0005 31.8139C20.5531 31.8141 21.0012 31.366 21.0009 30.8134L21.0007 21.9157Z" fill="#161618"/>
</g>
<defs>
<clipPath id="clip0_1130_10572">
<rect width="16" height="16" fill="white" transform="translate(20 9.60156) rotate(45)"/>
</clipPath>
</defs>
</svg>
