<svg width="35" height="34" viewBox="0 0 35 34" fill="none" xmlns="http://www.w3.org/2000/svg">
<rect x="0.199219" width="34" height="34" rx="7" fill="#F2F2F2"/>
<path fill-rule="evenodd" clip-rule="evenodd" d="M14.8896 10.5721C13.8513 10.5721 13.0097 11.4137 13.0097 12.4519C13.0097 13.4902 13.8513 14.3318 14.8896 14.3318C15.9278 14.3318 16.7694 13.4902 16.7694 12.4519C16.7694 11.4137 15.9278 10.5721 14.8896 10.5721ZM11.3116 12.4519C11.3116 10.4759 12.9135 8.87396 14.8896 8.87396C16.8656 8.87396 18.4675 10.4759 18.4675 12.4519C18.4675 14.428 16.8656 16.0299 14.8896 16.0299C12.9135 16.0299 11.3116 14.428 11.3116 12.4519ZM19.4095 9.75319C19.6889 9.37661 20.2207 9.29784 20.5973 9.57726C21.474 10.2278 22.0449 11.2733 22.0449 12.4521C22.0449 13.6308 21.474 14.6764 20.5973 15.3269C20.2207 15.6063 19.6889 15.5276 19.4095 15.151C19.1301 14.7744 19.2089 14.2426 19.5855 13.9632C20.0491 13.6192 20.3468 13.0705 20.3468 12.4521C20.3468 11.8337 20.0491 11.285 19.5855 10.941C19.2089 10.6616 19.1301 10.1298 19.4095 9.75319ZM8.19953 21.5479C8.19975 19.572 9.8016 17.9703 11.7775 17.9703H17.8884C19.8645 17.9703 21.4665 19.5725 21.4663 21.5486L21.4661 24.2773C21.466 24.7462 21.0859 25.1263 20.6169 25.1263C20.148 25.1262 19.7679 24.7461 19.768 24.2772L19.7682 21.5485C19.7683 20.5102 18.9266 19.6685 17.8884 19.6685H11.7775C10.7394 19.6685 9.89776 20.51 9.89764 21.5481L9.89733 24.2773C9.89728 24.7462 9.5171 25.1263 9.04818 25.1263C8.57926 25.1262 8.19917 24.7461 8.19922 24.2771L8.19953 21.5479ZM21.7722 18.8196C21.7722 18.3506 22.1523 17.9705 22.6212 17.9705C24.5974 17.9705 26.1994 19.5726 26.1992 21.5488L26.199 24.2775C26.1989 24.7464 25.8188 25.1265 25.3498 25.1264C24.8809 25.1264 24.5008 24.7462 24.5009 24.2773L24.5011 21.5486C24.5012 20.5104 23.6595 19.6686 22.6212 19.6686C22.1523 19.6686 21.7722 19.2885 21.7722 18.8196Z" fill="#1C1D26"/>
</svg>
